# xmcd
#
# Track frame offsets:
#	150
#	14139
#	30692
#	45628
#	61687
#	76937
#	90166
#	103609
#	119096
#	135390
#	151966
#	169476
#	184977
#	204244
#	219369
#	237685
#	250362
#	265266
#	279724
#	296730
#
# Disc length: 4144 seconds
#
# Revision: 0
# Processed by: cddbd v1.4PL0 Copyright (c) Steve Scherf et al.
# Submitted via: dBpowerAMP V4.0
#
DISCID=26102e14
DTITLE=ataide e alexandre - as 20 mais
DYEAR=2003
DGENRE=sertanejo
TTITLE0=as avenidas
TTITLE1=quando o amor e pra valer
TTITLE2=convite de casamento
TTITLE3=madrugadeiro
TTITLE4=rosas e versos
TTITLE5=clareou clareou
TTITLE6=ta nervoso vai pesca
TTITLE7=agenda rabiscada
TTITLE8=voce marcou pra mim
TTITLE9=morro
TTITLE10=taxi
TTITLE11=chuva de mulher
TTITLE12=laco aberto
TTITLE13=barretezao
TTITLE14=pelo interfone
TTITLE15=comer comer
TTITLE16=mulher boa era maria
TTITLE17=liguei pra dizer que te amo
TTITLE18=doces palavras
TTITLE19=danca do chapeu
EXTD=as faixas estao sem acentuação devido ao winnamp e outros players não suportarem os acentos em suas ID tags 
EXTT0=
EXTT1=
EXTT2=
EXTT3=
EXTT4=
EXTT5=
EXTT6=
EXTT7=
EXTT8=
EXTT9=
EXTT10=
EXTT11=
EXTT12=
EXTT13=
EXTT14=
EXTT15=
EXTT16=
EXTT17=
EXTT18=
EXTT19=
PLAYORDER=
